<?xml version="1.0" encoding="UTF-8" standalone="no"?>
<svg
   xmlns:dc="http://purl.org/dc/elements/1.1/"
   xmlns:cc="http://creativecommons.org/ns#"
   xmlns:rdf="http://www.w3.org/1999/02/22-rdf-syntax-ns#"
   xmlns:svg="http://www.w3.org/2000/svg"
   xmlns="http://www.w3.org/2000/svg"
   xmlns:sodipodi="http://sodipodi.sourceforge.net/DTD/sodipodi-0.dtd"
   xmlns:inkscape="http://www.inkscape.org/namespaces/inkscape"
   inkscape:version="1.0 (4035a4fb49, 2020-05-01)"
   sodipodi:docname="supabase-supabasepostgres-18-04.svg"
   id="svg19"
   version="1.1"
   fill="none"
   viewBox="0 0 375 375"
   height="375"
   width="375">
  <metadata
     id="metadata23">
    <rdf:RDF>
      <cc:Work
         rdf:about="">
        <dc:format>image/svg+xml</dc:format>
        <dc:type
           rdf:resource="http://purl.org/dc/dcmitype/StillImage" />
      </cc:Work>
    </rdf:RDF>
  </metadata>
  <sodipodi:namedview
     inkscape:current-layer="svg19"
     inkscape:window-maximized="1"
     inkscape:window-y="-9"
     inkscape:window-x="-9"
     inkscape:cy="187.5"
     inkscape:cx="187.5"
     inkscape:zoom="1"
     inkscape:snap-page="true"
     showgrid="false"
     id="namedview21"
     inkscape:window-height="1271"
     inkscape:window-width="2400"
     inkscape:pageshadow="2"
     inkscape:pageopacity="0"
     guidetolerance="10"
     gridtolerance="10"
     objecttolerance="10"
     borderopacity="1"
     bordercolor="#666666"
     pagecolor="#ffffff" />
  <rect
     y="0"
     x="0"
     height="375"
     width="375"
     id="rect848"
     style="fill:#1f1f1f;fill-opacity:1;fill-rule:evenodd;stroke-width:5.373;stroke-linecap:round;stroke-linejoin:round;paint-order:stroke markers fill" />
  <path
     style="stroke-width:0.812245"
     id="path2"
     fill="#3ecf8e"
     d="M 213.0118,58.339334 C 213.0118,52.739556 208.47379,48.2 202.87661,48.2 c -2.78357,0 -5.30477,1.122522 -7.13639,2.939677 l -1.40762,1.566658 -78.16801,105.681185 h 77.57345 l 18.88388,-97.187134 0.34439,-1.89846 c 0.0301,-0.316857 0.0455,-0.637937 0.0455,-0.962592 z" />
  <path
     style="stroke-width:0.812245"
     id="path4"
     fill="#3ecf8e"
     d="m 88,201.9872 c 0,8.95906 7.260251,16.22216 16.21623,16.22216 h 0.0717 77.82687 l 11.62322,-59.82184 h -77.57345 l -23.505553,31.77908 -1.513619,2.21662 C 89.168171,195.07175 88,198.39302 88,201.9872 Z" />
  <path
     style="stroke-width:0.812245"
     id="path6"
     fill="#3ecf8e"
     d="m 287,174.61049 c 0,-8.95988 -7.26066,-16.22297 -16.21647,-16.22297 h -0.64167 -76.40382 l -11.62322,59.82184 h 76.62068 l 24.69387,-33.38571 0.98525,-1.42143 C 286.05049,180.86964 287,177.85053 287,174.61049 Z" />
  <path
     style="stroke-width:0.812245"
     id="path8"
     fill="#3ecf8e"
     d="m 163.15946,316.66075 c 0,5.59961 4.5372,10.13925 10.13519,10.13925 3.00124,0 5.69871,-1.30528 7.55388,-3.37975 l 0.39962,-0.44998 77.48735,-104.76091 h -76.62068 l -18.58823,95.66701 -0.0496,0.25667 c -0.20793,0.80818 -0.31758,1.65536 -0.31758,2.52771 z" />
  <path
     style="fill:url(#paint0_linear);stroke-width:0.812245"
     id="path10"
     fill="url(#paint0_linear)"
     d="m 163.15946,316.66075 c 0,5.59961 4.5372,10.13925 10.13519,10.13925 3.00124,0 5.69871,-1.30528 7.55388,-3.37975 l 0.39962,-0.44998 77.48735,-104.76091 h -76.62068 l -18.58823,95.66701 -0.0496,0.25667 c -0.20793,0.80818 -0.31758,1.65536 -0.31758,2.52771 z" />
  <defs
     id="defs17">
    <linearGradient
       gradientTransform="matrix(0.8122449,0,0,0.8122449,35.204082,35.204082)"
       gradientUnits="userSpaceOnUse"
       y2="359"
       x2="167"
       y1="237"
       x1="236"
       id="paint0_linear">
      <stop
         id="stop12"
         stop-color="#23915F" />
      <stop
         id="stop14"
         stop-opacity="0"
         stop-color="#3ECF8E"
         offset="1" />
    </linearGradient>
  </defs>
</svg>
